HIERARCHY
ROOT Hips
{
	OFFSET 0.000000 0.000000 0.000000
	CHANNELS 6 Xposition Yposition Zposition Zrotation Yrotation Xrotation 
	JOINT LHipJoint
	{
		OFFSET 0.000000 0.000000 0.000000
		CHANNELS 3 Zrotation Yrotation Xrotation
		JOINT LeftUpLeg
		{
			OFFSET 1.363060 -1.794630 0.839290
			CHANNELS 3 Zrotation Yrotation Xrotation
			JOINT LeftLeg
			{
				OFFSET 2.448110 -6.726130 0.000000
				CHANNELS 3 Zrotation Yrotation Xrotation
				JOINT LeftFoot
				{
					OFFSET 2.562200 -7.039590 0.000000
					CHANNELS 3 Zrotation Yrotation Xrotation
					JOINT LeftToeBase
					{
						OFFSET 0.157640 -0.433110 2.322550
						CHANNELS 3 Zrotation Yrotation Xrotation
						End Site
						{
							OFFSET 0.000000 0.000000 0.000000
						}
					}
				}
			}
		}
	}
	JOINT RHipJoint
	{
		OFFSET 0.000000 0.000000 0.000000
		CHANNELS 3 Zrotation Yrotation Xrotation
		JOINT RightUpLeg
		{
			OFFSET -1.305520 -1.794630 0.839290
			CHANNELS 3 Zrotation Yrotation Xrotation
			JOINT RightLeg
			{
				OFFSET -2.542530 -6.985550 0.000000
				CHANNELS 3 Zrotation Yrotation Xrotation
				JOINT RightFoot
				{
					OFFSET -2.568260 -7.056230 0.000000
					CHANNELS 3 Zrotation Yrotation Xrotation
					JOINT RightToeBase
					{
						OFFSET -0.164730 -0.452590 2.363150
						CHANNELS 3 Zrotation Yrotation Xrotation
						End Site
						{
							OFFSET 0.000000 0.000000 0.000000
						}
					}
				}
			}
		}
	}
	JOINT LowerBack
	{
		OFFSET 0.000000 0.000000 0.000000
		CHANNELS 3 Zrotation Yrotation Xrotation
		JOINT Spine
		{
			OFFSET 0.028270 2.035590 -0.193380
			CHANNELS 3 Zrotation Yrotation Xrotation
			JOINT Spine1
			{
				OFFSET 0.056720 2.048850 -0.042750
				CHANNELS 3 Zrotation Yrotation Xrotation
				JOINT Neck
				{
					OFFSET 0.000000 0.000000 0.000000
					CHANNELS 3 Zrotation Yrotation Xrotation
					JOINT Neck1
					{
						OFFSET -0.054170 1.746240 0.172020
						CHANNELS 3 Zrotation Yrotation Xrotation
						JOINT Head
						{
							OFFSET 0.104070 1.761360 -0.123970
							CHANNELS 3 Zrotation Yrotation Xrotation
							End Site
							{
								OFFSET 0.000000 0.000000 0.000000
							}
						}
					}
				}
				JOINT LeftShoulder
				{
					OFFSET 0.000000 0.000000 0.000000
					CHANNELS 3 Zrotation Yrotation Xrotation
					JOINT LeftArm
					{
						OFFSET 3.362410 1.200890 -0.311210
						CHANNELS 3 Zrotation Yrotation Xrotation
						JOINT LeftForeArm
						{
							OFFSET 4.983000 -0.000000 -0.000000
							CHANNELS 3 Zrotation Yrotation Xrotation
							JOINT LeftHand
							{
								OFFSET 3.483560 -0.000000 -0.000000
								CHANNELS 3 Zrotation Yrotation Xrotation
								JOINT LeftFingerBase
								{
									OFFSET 0.000000 0.000000 0.000000
									CHANNELS 3 Zrotation Yrotation Xrotation
									JOINT LeftHandIndex1
									{
										OFFSET 0.715260 -0.000000 -0.000000
										CHANNELS 3 Zrotation Yrotation Xrotation
										End Site
										{
											OFFSET 0.000000 0.000000 0.000000
										}
									}
								}
								JOINT LThumb
								{
									OFFSET 0.000000 0.000000 0.000000
									CHANNELS 3 Zrotation Yrotation Xrotation
									End Site
									{
										OFFSET 0.000000 0.000000 0.000000
									}
								}
							}
						}
					}
				}
				JOINT RightShoulder
				{
					OFFSET 0.000000 0.000000 0.000000
					CHANNELS 3 Zrotation Yrotation Xrotation
					JOINT RightArm
					{
						OFFSET -3.136600 1.374050 -0.404650
						CHANNELS 3 Zrotation Yrotation Xrotation
						JOINT RightForeArm
						{
							OFFSET -5.241900 -0.000000 -0.000000
							CHANNELS 3 Zrotation Yrotation Xrotation
							JOINT RightHand
							{
								OFFSET -3.444170 -0.000000 -0.000000
								CHANNELS 3 Zrotation Yrotation Xrotation
								JOINT RightFingerBase
								{
									OFFSET 0.000000 0.000000 0.000000
									CHANNELS 3 Zrotation Yrotation Xrotation
									JOINT RightHandIndex1
									{
										OFFSET -0.622530 -0.000000 -0.000000
										CHANNELS 3 Zrotation Yrotation Xrotation
										End Site
										{
											OFFSET 0.000000 0.000000 0.000000
										}
									}
								}
								JOINT RThumb
								{
									OFFSET 0.000000 0.000000 0.000000
									CHANNELS 3 Zrotation Yrotation Xrotation
									End Site
									{
										OFFSET 0.000000 0.000000 0.000000
									}
								}
							}
						}
					}
				}
			}
		}
	}
}
MOTION
Frames: 8
Frame Time: 0.008333
-22.438293 17.314495 2.044813 18.441299 86.668820 20.468383 17.665543 3.174570 -2.424751 -39.701697 -16.422527 5.366640 -12.793348 4.420872 11.217517 0.985055 5.851292 -21.439590 11.285000 -18.071800 -63.703800 -18.149960 -3.525726 -3.476107 29.224835 0.082002 -18.878377 3.094720 -17.656067 44.419809 0.194611 -10.728931 -19.987877 -0.116300 2.198300 -6.053900 12.294816 6.926946 25.909783 -6.482264 17.864210 -6.696867 -43.617342 -0.002470 -22.364050 12.741490 -12.477202 -15.904411 4.390428 -19.880227 28.196859 -0.674900 -2.770000 22.366400 2.664299 -6.998442 1.162894 -43.541492 11.113558 59.802271 27.313482 -35.544151 -9.411309 -1.131598 0.746927 0.365104 33.694662 32.210785 19.646300 -7.125000 0.000000 0.000000 4.734000 65.958500 2.397100 -9.186164 8.873369 3.136342 122.363866 -26.786211 -4.063515 -33.565031 53.461307 -12.131350 0.991567 -4.231569 -4.701517 -19.237146 -20.394365 5.643800 7.125000 0.000000 0.000000 7.270800 -46.541800 -0.278100 
-22.168012 17.311856 2.022931 23.654643 86.703769 25.501838 18.039147 3.214820 -2.556706 -40.989806 -16.206489 7.334873 -12.996024 3.865822 10.428008 1.165207 5.919743 -22.479641 11.189400 -18.026500 -63.395200 -17.948635 -3.350043 -3.390547 28.524674 1.222713 -20.040187 4.577524 -16.852937 40.187334 0.612826 -11.700177 -19.255491 -0.553800 4.767100 -13.245600 12.176397 6.772893 26.174864 -6.486609 17.589096 -6.620626 -43.616640 -0.090484 -22.402501 12.737435 -12.423231 -15.873531 4.222499 -19.808557 28.217366 -0.796000 -2.769500 22.311800 2.655135 -6.996291 1.141171 -43.164046 10.567693 60.458197 28.810678 -36.837551 -10.201221 -1.130826 0.707894 -0.266423 33.912085 32.556615 19.983000 -7.125000 0.000000 0.000000 4.894600 66.422700 2.530900 -9.152663 8.856856 3.157783 122.399719 -26.685346 -4.599844 -34.234725 53.856861 -12.493807 1.050443 -4.221949 -4.684339 -18.971376 -20.639958 5.667900 7.125000 0.000000 0.000000 7.522900 -46.776200 -0.331600 
-21.898940 17.301410 2.008526 28.349700 86.770094 30.141451 18.408701 3.262361 -2.675842 -42.110686 -15.998240 8.935132 -13.178510 3.485638 9.949646 1.156425 7.002480 -23.090732 11.640100 -18.234300 -64.843400 -17.743276 -3.105949 -3.300438 27.697636 2.933335 -20.693491 6.267724 -15.644308 35.122041 0.938826 -12.407972 -18.782996 -0.553800 4.767100 -13.245600 12.095466 6.591509 26.352516 -6.490008 17.302284 -6.570427 -43.688725 -0.213069 -22.479589 12.966895 -12.180676 -16.050041 4.238457 -19.570058 28.211301 -0.822300 -2.638600 22.325800 2.630445 -6.991497 1.113301 -42.758662 9.983567 61.036653 30.162156 -37.946847 -10.930108 -1.129101 0.678577 -0.802827 33.992067 32.678917 20.108000 -7.125000 0.000000 0.000000 4.943300 66.600900 2.576300 -9.100648 8.853590 3.180995 122.631557 -26.671790 -5.216580 -34.965989 54.318956 -12.887694 1.082945 -4.201570 -4.377994 -18.867707 -20.608450 5.649600 7.125000 0.000000 0.000000 7.564000 -46.758200 -0.330000 
-21.625690 17.285576 2.001599 32.100929 86.820243 33.931740 18.761428 3.321330 -2.782927 -43.125737 -15.837136 10.412805 -13.360976 3.133631 9.507465 1.044662 8.538550 -23.394075 12.101200 -18.433100 -66.309300 -17.617147 -2.845768 -3.188844 26.760138 5.530305 -20.699771 8.108123 -14.001294 29.266333 1.965210 -15.667644 -17.006436 -1.261000 7.118300 -20.066400 12.003391 6.452633 26.459827 -6.506886 17.078486 -6.545291 -43.721269 -0.355635 -22.636315 12.739018 -12.170419 -15.828217 4.688025 -19.393424 28.076008 -0.463700 -2.622500 22.238600 2.597016 -6.971070 1.098586 -42.668053 9.307573 61.253775 31.033525 -38.643546 -11.413740 -1.118136 0.674794 -0.766367 34.220280 32.660219 20.249700 -7.125000 0.000000 0.000000 5.263100 66.650600 2.749300 -9.061414 8.874557 3.210377 122.831670 -26.730936 -5.781061 -35.586513 54.686628 -13.212725 1.082780 -4.163531 -3.970321 -18.932824 -19.977586 5.477100 7.125000 0.000000 0.000000 7.334300 -46.160600 -0.211200 
-21.346062 17.268642 2.002039 37.643454 86.838006 39.599464 19.161547 3.396926 -2.890111 -44.263123 -15.727600 11.863678 -13.540566 2.780395 9.020405 1.004636 9.547975 -23.659435 12.268800 -18.502000 -66.838300 -17.415637 -2.477667 -3.015475 25.291017 8.910701 -20.177991 9.811594 -11.861389 22.793015 2.448850 -17.507105 -17.459505 -1.136500 6.770300 -19.036700 11.745406 6.382059 26.399673 -6.544242 16.874496 -6.534427 -43.636016 -0.414793 -22.737476 12.606588 -12.198957 -15.768413 4.882203 -19.378178 28.016036 -0.318100 -2.641100 22.205300 2.564598 -6.944552 1.070262 -42.500882 8.621386 61.716803 31.932514 -39.389418 -11.978021 -1.118227 0.635375 -0.887849 35.375592 33.590921 21.556400 -7.125000 0.000000 0.000000 6.646900 68.012600 3.681100 -9.026640 8.893679 3.240138 123.019290 -26.826269 -6.393691 -36.257109 55.081991 -13.580626 1.103496 -4.133071 -3.532155 -18.840115 -19.751492 5.400000 7.125000 0.000000 0.000000 7.326600 -45.957900 -0.174200 
-21.059837 17.248519 2.013474 44.532439 86.841667 46.701104 19.542873 3.505027 -2.976065 -45.332048 -15.607022 13.228270 -13.693050 2.427512 8.507683 1.072295 9.796632 -23.962473 12.278700 -18.506000 -66.869600 -17.204088 -2.018663 -2.816481 23.339359 12.926269 -19.373962 11.123910 -9.412630 16.126997 3.002787 -19.751844 -18.630405 -1.168100 6.860700 -19.303200 11.376243 6.328035 26.171087 -6.586402 16.640770 -6.537338 -43.479076 -0.439343 -22.800360 12.734328 -12.159131 -15.780071 4.846841 -19.349512 28.029346 -0.366100 -2.601600 22.180000 2.534856 -6.905963 1.028883 -42.110051 8.067284 62.405655 33.001819 -40.225354 -12.628477 -1.117440 0.598122 -1.194420 36.188150 34.127309 22.435900 -7.125000 0.000000 0.000000 7.717500 68.856300 4.423900 -8.980764 8.906958 3.264731 123.233037 -26.994317 -6.991942 -37.042812 55.570054 -14.041882 1.157861 -4.117336 -3.103217 -18.567020 -20.357336 5.557600 7.125000 0.000000 0.000000 7.646800 -46.580900 -0.300100 
-20.766464 17.224108 2.036896 51.013434 86.903678 53.428678 19.842494 3.632992 -3.055303 -46.096071 -15.412755 14.466116 -13.801454 2.118659 8.104932 1.161898 9.775341 -24.239577 12.287800 -18.509700 -66.898100 -17.077701 -1.506404 -2.581946 21.162959 17.684380 -18.348385 11.869380 -6.909433 9.702077 3.371112 -21.360847 -19.934322 -0.707500 5.375800 -14.983500 11.049693 6.273471 25.867113 -6.618412 16.417146 -6.545093 -43.306988 -0.465523 -22.844047 12.927552 -12.191798 -15.651291 4.782625 -19.390842 28.022632 -0.440200 -2.584600 22.071800 2.515181 -6.856896 0.993647 -41.812359 7.565227 62.868031 33.954417 -40.898153 -13.147753 -1.105866 0.611500 -1.157588 35.664696 33.415525 21.670100 -7.125000 0.000000 0.000000 7.117500 67.933500 3.930000 -8.938699 8.918625 3.283216 123.410145 -27.186801 -7.496309 -37.870958 56.071768 -14.530349 1.190011 -4.087978 -2.713274 -18.528851 -20.576953 5.649600 7.125000 0.000000 0.000000 7.685500 -46.842600 -0.351500 
-20.463525 17.194309 2.069444 58.067843 87.064485 60.734117 20.086838 3.792454 -3.152072 -46.573704 -15.085163 15.609925 -13.859243 1.889225 7.904626 1.271933 9.479665 -24.461987 12.310000 -18.518600 -66.968000 -17.055633 -0.885033 -2.291267 18.653180 23.701699 -17.114962 12.031335 -4.619803 3.870258 3.468535 -22.237951 -22.327826 -0.209100 2.944400 -8.123900 10.827527 6.194508 25.516628 -6.636183 16.202522 -6.559492 -43.223832 -0.491617 -22.858642 13.493169 -12.110145 -15.902682 4.334759 -19.515756 28.262217 -0.833500 -2.479600 22.227400 2.503258 -6.823782 0.950281 -41.654238 7.029481 63.105535 34.590153 -41.326910 -13.497361 -1.098519 0.625281 -0.741643 35.219559 33.040829 21.155300 -7.125000 0.000000 0.000000 6.560000 67.401600 3.541700 -8.880438 8.921123 3.292498 123.728159 -27.408061 -8.084044 -38.834021 56.642868 -15.060238 1.216289 -4.043395 -2.215262 -18.452999 -20.181503 5.529200 7.125000 0.000000 0.000000 7.615300 -46.486300 -0.280900 
